# Blender 4.5.4 LTS
# www.blender.org
mtllib Test3.mtl
o Fläche
v -1.732051 -0.002515 1.001619
v 1.732051 -0.002515 1.001619
v -0.866025 -0.002515 -0.498381
v 0.866025 -0.002515 -0.498381
v 0.000000 -0.002515 -0.998381
v 0.866025 -0.002515 0.501619
v 1.732051 -0.002515 2.001619
v 0.866025 -0.002515 2.501619
v 0.000000 -0.002515 2.001619
v -0.866025 -0.002515 2.501619
v -0.866025 -0.002515 0.501619
v -1.732051 -0.002515 2.001619
v -0.866025 0.129345 0.501619
v -1.732051 0.129345 1.001619
v 1.732051 0.129345 2.001619
v 1.732051 0.129345 1.001619
v 0.866025 0.129344 0.501619
v 0.866025 0.129344 -0.498381
v 0.000000 0.129344 -0.998381
v -0.866025 0.129344 -0.498381
v 0.866025 0.129345 2.501619
v 0.000000 0.129345 2.001619
v -0.866025 0.129345 2.501619
v -1.732051 0.129345 2.001619
vn -0.0000 -1.0000 -0.0000
vn -0.0000 1.0000 -0.0000
vn 0.5000 -0.0000 0.8660
vn -0.5000 -0.0000 -0.8660
vn -1.0000 -0.0000 -0.0000
vn -0.5000 -0.0000 0.8660
vn 0.5000 -0.0000 -0.8660
vn 1.0000 -0.0000 -0.0000
vt 0.250000 0.142828
vt 0.374929 0.570886
vt 0.125071 0.570886
vt 0.625071 0.428200
vt 0.874929 0.428200
vt 0.750000 0.856258
vt 0.908255 0.142828
vt 0.941582 0.428200
vt 0.908255 0.428200
vt 0.408256 0.570886
vt 0.441582 0.856258
vt 0.408256 0.856258
vt 0.374929 0.570886
vt 0.408256 0.856258
vt 0.374930 0.856258
vt 0.474908 0.856258
vt 0.441582 0.570886
vt 0.474908 0.570886
vt 0.941581 0.142827
vt 0.974908 0.428200
vt 0.941581 0.428200
vt 0.091744 0.856258
vt 0.058418 0.570886
vt 0.091744 0.570886
vt 0.533185 0.428200
vt 0.499859 0.142827
vt 0.533185 0.142827
vt 0.874929 0.142828
vt 0.599838 0.142827
vt 0.566511 0.428200
vt 0.566511 0.142827
vt 0.058418 0.856258
vt 0.025092 0.570886
vt 0.058418 0.570886
vt 0.125071 0.856258
vt 0.125071 0.570886
vt 0.533185 0.142827
vt 0.000141 0.142828
vt 0.125071 0.000141
vt 0.374929 0.000141
vt 0.499859 0.142827
vt 0.499859 0.428200
vt 0.374930 0.856258
vt 0.250000 0.998945
vt 0.000141 0.428200
vt 0.625071 0.998945
vt 0.500141 0.856258
vt 0.500141 0.570886
vt 0.625071 0.142828
vt 0.750000 0.000141
vt 0.874929 0.142828
vt 0.999859 0.570886
vt 0.999859 0.856259
vt 0.874929 0.998945
vt 0.941582 0.142827
vt 0.441582 0.570886
vt 0.408256 0.570886
vt 0.974908 0.142827
vt 0.874929 0.428200
vt 0.599838 0.428200
vt 0.025092 0.856258
vt 0.533185 0.428200
s 0
usemtl Material.001
f 11/1/1 6/2/1 9/3/1
f 22/4/2 17/5/2 13/6/2
f 7/7/3 21/8/3 8/9/3
f 3/10/4 19/11/4 5/12/4
f 11/13/5 20/14/5 3/15/5
f 1/16/4 13/17/4 11/18/4
f 8/19/6 22/20/6 9/21/6
f 5/22/7 18/23/7 4/24/7
f 12/25/5 14/26/5 1/27/5
f 2/9/8 15/28/8 7/7/8
f 10/29/3 22/30/3 23/31/3
f 6/32/7 16/33/7 2/34/7
f 4/35/8 17/24/8 6/36/8
f 10/30/6 24/37/6 12/31/6
f 12/38/1 1/39/1 11/1/1
f 11/1/1 3/40/1 5/41/1
f 5/41/1 4/42/1 11/1/1
f 4/42/1 6/2/1 11/1/1
f 6/2/1 2/43/1 7/44/1
f 7/44/1 8/35/1 6/2/1
f 8/35/1 9/3/1 6/2/1
f 9/3/1 10/45/1 12/38/1
f 9/3/1 12/38/1 11/1/1
f 13/6/2 14/46/2 24/47/2
f 24/47/2 23/48/2 22/4/2
f 22/4/2 21/49/2 17/5/2
f 21/49/2 15/50/2 17/5/2
f 15/50/2 16/51/2 17/5/2
f 17/5/2 18/52/2 19/53/2
f 19/53/2 20/54/2 17/5/2
f 20/54/2 13/6/2 17/5/2
f 13/6/2 24/47/2 22/4/2
f 7/7/3 15/55/3 21/8/3
f 3/10/4 20/56/4 19/11/4
f 11/13/5 13/57/5 20/14/5
f 1/16/4 14/11/4 13/17/4
f 8/19/6 21/58/6 22/20/6
f 5/22/7 19/32/7 18/23/7
f 12/25/5 24/42/5 14/26/5
f 2/9/8 16/59/8 15/28/8
f 10/29/3 9/60/3 22/30/3
f 6/32/7 17/61/7 16/33/7
f 4/35/8 18/22/8 17/24/8
f 10/30/6 23/62/6 24/37/6
